<svg viewBox="0 0 405 85" fill="none" xmlns="http://www.w3.org/2000/svg">
<path fill-rule="evenodd" clip-rule="evenodd" d="M0 23.4477L42.5749 0L49.7461 3.94927L15.7833 22.7918L42.5729 37.5458L76.5357 18.7052L85.1478 23.4477L42.5749 46.8955L0 23.4477Z" fill="#00D2FF"/>
<path fill-rule="evenodd" clip-rule="evenodd" d="M0 60.8468L12.347 54.1668L19.5182 58.118L15.7833 60.1908L42.5729 74.9448L76.5357 56.1042L85.1478 60.8468L42.5749 84.2946L0 60.8468Z" fill="#016AFB"/>
<path fill-rule="evenodd" clip-rule="evenodd" d="M0 42.1472L12.347 35.4691L19.5182 39.4184L15.7833 41.4912L42.5729 56.2452L76.5357 37.4047L85.1478 42.1472L42.5749 65.595L0 42.1472Z" fill="#03A0FF"/>
<path fill-rule="evenodd" clip-rule="evenodd" d="M114.379 42.5497C114.379 53.6106 123.373 62.4046 134.546 62.4046C139.519 62.4046 144.324 60.6899 148.122 57.0398C148.513 56.6533 148.569 55.9326 148.178 55.5461L143.822 50.9544C143.487 50.5679 142.759 50.5679 142.369 50.8992C140.358 52.6138 137.508 53.5553 134.883 53.5553C128.569 53.5553 123.878 48.4667 123.878 42.3261C123.878 36.1855 128.516 30.9312 134.828 30.9312C137.563 30.9312 140.302 31.9279 142.369 33.753C142.759 34.1395 143.376 34.1395 143.766 33.753L148.125 29.2718C148.572 28.83 148.572 28.1646 148.069 27.7228C144.271 24.2936 140.135 22.5789 134.549 22.5789C123.376 22.5789 114.382 31.4834 114.382 42.547H114.379V42.5497ZM161.498 42.5497C161.498 53.6106 170.381 62.4046 181.556 62.4046C192.732 62.4046 201.668 53.6106 201.668 42.5497C201.668 31.4889 192.729 22.5817 181.556 22.5817C170.384 22.5817 161.498 31.4861 161.498 42.5497ZM170.437 42.5497C170.437 36.4643 175.465 31.4337 181.554 31.4337C187.642 31.4337 192.726 36.4671 192.726 42.5497C192.726 48.6324 187.698 53.5553 181.554 53.5553C175.41 53.5553 170.437 48.5771 170.437 42.5497ZM218.114 60.8031C218.114 61.3554 218.56 61.8551 219.177 61.8551H240.183C240.797 61.8551 241.246 61.3581 241.246 60.8031V54.773C241.246 54.2208 240.799 53.721 240.183 53.721H226.885V24.1859C226.885 23.6337 226.383 23.1339 225.823 23.1339H219.174C218.56 23.1339 218.111 23.6309 218.111 24.1859V60.8004L218.114 60.8031ZM256.351 60.8031C256.351 61.3554 256.797 61.8551 257.413 61.8551H278.42C279.033 61.8551 279.482 61.3581 279.482 60.8031V54.773C279.482 54.2208 279.036 53.721 278.42 53.721H265.122V24.1859C265.122 23.6337 264.62 23.1339 264.059 23.1339H257.411C256.797 23.1339 256.348 23.6309 256.348 24.1859V60.8004L256.351 60.8031ZM292.351 61.8551H298.497C299.616 61.8551 300.229 61.1925 300.508 60.527L302.519 56.1011H317.716L319.727 60.4718C320.229 61.5238 320.675 61.8551 321.682 61.8551H327.885C328.724 61.8551 329.17 61.1372 328.836 60.4166L311.349 23.1919C311.182 22.8606 310.791 22.5845 310.398 22.5845H309.84C309.45 22.5845 309.059 22.8606 308.892 23.1919L291.405 60.4166C291.07 61.1345 291.517 61.8551 292.356 61.8551H292.351ZM305.871 48.5799L310.06 39.4546H310.116L314.361 48.5799H305.869H305.871ZM346.119 60.8031C346.119 61.3554 346.621 61.8551 347.181 61.8551H353.886C354.444 61.8551 354.949 61.3581 354.949 60.8031V31.268H362.936C363.55 31.268 363.999 30.771 363.999 30.2161V24.1859C363.999 23.6337 363.553 23.1339 362.936 23.1339H338.131C337.518 23.1339 337.069 23.6309 337.069 24.1859V30.2161C337.069 30.7683 337.515 31.268 338.131 31.268H346.119V60.8031ZM379.271 60.8031C379.271 61.3554 379.717 61.8551 380.334 61.8551H403.463C404.076 61.8551 404.525 61.3581 404.525 60.8031V54.773C404.525 54.2208 404.079 53.721 403.463 53.721H387.987V46.2551H400.724C401.282 46.2551 401.786 45.8133 401.786 45.2031V39.173C401.786 38.6207 401.284 38.121 400.724 38.121H387.987V31.2625H403.463C404.076 31.2625 404.525 30.7655 404.525 30.2105V24.1804C404.525 23.6282 404.079 23.1284 403.463 23.1284H380.334C379.72 23.1284 379.271 23.6254 379.271 24.1804V60.7949V60.8031Z" fill="#162044"/>
</svg>