<svg viewBox="0 0 20 23" fill="none" xmlns="http://www.w3.org/2000/svg">
<path d="M20 11.4473L16 15.4473L14.59 14.0373L16.17 12.4473H10.94C10.6 15.5473 8.68 18.1673 6 19.4973C5.96 21.1373 4.64 22.4473 3 22.4473C1.34 22.4473 0 21.1073 0 19.4473C0 17.7873 1.34 16.4473 3 16.4473C3.95 16.4473 4.78 16.8973 5.33 17.5873C7.23 16.5573 8.59 14.6773 8.91 12.4473H5.81C5.4 13.6073 4.3 14.4473 3 14.4473C1.34 14.4473 0 13.1073 0 11.4473C0 9.78727 1.34 8.44727 3 8.44727C4.3 8.44727 5.4 9.28727 5.82 10.4473H8.92C8.6 8.21727 7.23 6.34727 5.33 5.30727C4.78 5.99727 3.95 6.44727 3 6.44727C1.34 6.44727 0 5.10727 0 3.44727C0 1.78727 1.34 0.447266 3 0.447266C4.64 0.447266 5.96 1.75727 5.99 3.39727C8.67 4.72727 10.59 7.34727 10.93 10.4473H16.16L14.58 8.85727L16 7.44727L20 11.4473Z" fill="#5C6181"/>
</svg>
