<svg viewBox="0 0 26 32" fill="none" xmlns="http://www.w3.org/2000/svg">
<path d="M13.25 6.40002L10 12.4001H12.1667V16.4001L15.4167 10.4001H13.25V6.40002Z" fill="currentColor"/>
<path d="M8.3109 21.8259V20.3924C5.39561 18.6748 3 15.326 3 11.7672C3 5.65039 8.76721 0.855833 15.2822 2.23983C18.1468 2.85768 20.6565 4.71125 21.9621 7.26918C24.6112 12.4592 21.8226 17.9704 17.7286 20.3801V21.8135C17.7286 22.1719 17.868 22.9998 16.5117 22.9998H9.52772C8.13345 23.0121 8.3109 22.4808 8.3109 21.8259Z" stroke="currentColor" stroke-width="3" stroke-linecap="round" stroke-linejoin="round"/>
<path d="M9 25.6858C9 25.3073 9.256 25.0001 9.57143 25.0001H16.4286C16.5802 25.0001 16.7254 25.0723 16.8326 25.201C16.9398 25.3295 17 25.5039 17 25.6858C17 25.8677 16.9398 26.042 16.8326 26.1706C16.7254 26.2993 16.5802 26.3715 16.4286 26.3715H9.57143C9.41984 26.3715 9.27456 26.2993 9.16741 26.1706C9.06016 26.042 9 25.8677 9 25.6858Z" fill="currentColor"/>
<path fill-rule="evenodd" clip-rule="evenodd" d="M9 27.1515H17V29.1515C17 29.8875 16.488 30.4848 15.8571 30.4848H10.1429C9.512 30.4848 9 29.8875 9 29.1515V27.1515ZM10.1429 28.4848H15.8571V29.1515H10.1429V28.4848Z" fill="currentColor"/>
</svg>
