<svg viewBox="0 0 22 22" fill="none" xmlns="http://www.w3.org/2000/svg">
<path d="M15.2292 13.8639H14.2746L13.9362 13.5377C15.1204 12.1602 15.8333 10.3718 15.8333 8.42643C15.8333 4.08852 12.3171 0.572266 7.97917 0.572266C3.64125 0.572266 0.125 4.08852 0.125 8.42643C0.125 12.7643 3.64125 16.2806 7.97917 16.2806C9.92458 16.2806 11.7129 15.5677 13.0904 14.3835L13.4167 14.7218V15.6764L19.4583 21.706L21.2587 19.9056L15.2292 13.8639ZM7.97917 13.8639C4.97042 13.8639 2.54167 11.4352 2.54167 8.42643C2.54167 5.41768 4.97042 2.98893 7.97917 2.98893C10.9879 2.98893 13.4167 5.41768 13.4167 8.42643C13.4167 11.4352 10.9879 13.8639 7.97917 13.8639Z" fill="#5C6181"/>
</svg>
