<svg viewBox="0 0 21 23" fill="none" xmlns="http://www.w3.org/2000/svg">
<path d="M17.0363 2.97602C16.9463 2.97602 16.8563 2.95352 16.7775 2.90852C14.6175 1.79477 12.75 1.32227 10.5113 1.32227C8.28377 1.32227 6.16877 1.85102 4.24501 2.90852C3.97501 3.05477 3.63751 2.95352 3.48001 2.68352C3.33376 2.41352 3.43501 2.06477 3.70501 1.91852C5.79751 0.782266 8.09251 0.197266 10.5113 0.197266C12.9075 0.197266 15 0.726016 17.295 1.90727C17.5763 2.05352 17.6775 2.39102 17.5313 2.66102C17.43 2.86352 17.2388 2.97602 17.0363 2.97602ZM0.937514 8.88227C0.825014 8.88227 0.712514 8.84852 0.611264 8.78102C0.352514 8.60102 0.296264 8.25227 0.476264 7.99352C1.59001 6.41852 3.00751 5.18102 4.69501 4.31477C8.22752 2.49227 12.75 2.48102 16.2938 4.30352C17.9813 5.16977 19.3988 6.39602 20.5125 7.95977C20.6925 8.20727 20.6363 8.56727 20.3775 8.74727C20.1188 8.92727 19.77 8.87102 19.59 8.61227C18.5775 7.19477 17.295 6.08102 15.7763 5.30477C12.5475 3.65102 8.41877 3.65102 5.20126 5.31602C3.67126 6.10352 2.38876 7.22852 1.37626 8.64602C1.28626 8.80352 1.11751 8.88227 0.937514 8.88227ZM7.96877 22.461C7.82252 22.461 7.67627 22.4048 7.57502 22.2923C6.59626 21.3135 6.06751 20.6835 5.31376 19.3223C4.53751 17.9385 4.13251 16.251 4.13251 14.4398C4.13251 11.0985 6.99002 8.37602 10.5 8.37602C14.01 8.37602 16.8675 11.0985 16.8675 14.4398C16.8675 14.7548 16.62 15.0023 16.305 15.0023C15.99 15.0023 15.7425 14.7548 15.7425 14.4398C15.7425 11.7173 13.3913 9.50102 10.5 9.50102C7.60877 9.50102 5.25751 11.7173 5.25751 14.4398C5.25751 16.0598 5.61752 17.556 6.30377 18.771C7.02377 20.0648 7.51877 20.616 8.38502 21.4935C8.59877 21.7185 8.59877 22.0673 8.38502 22.2923C8.26127 22.4048 8.11502 22.461 7.96877 22.461ZM16.035 20.3798C14.6963 20.3798 13.515 20.0423 12.5475 19.3785C10.8713 18.2423 9.87002 16.3973 9.87002 14.4398C9.87002 14.1248 10.1175 13.8773 10.4325 13.8773C10.7475 13.8773 10.995 14.1248 10.995 14.4398C10.995 16.026 11.805 17.5223 13.1775 18.4448C13.9763 18.9848 14.91 19.2435 16.035 19.2435C16.305 19.2435 16.755 19.2098 17.205 19.131C17.5088 19.0748 17.8013 19.2773 17.8575 19.5923C17.9138 19.896 17.7113 20.1885 17.3963 20.2448C16.755 20.3685 16.1925 20.3798 16.035 20.3798ZM13.7738 22.6973C13.7288 22.6973 13.6725 22.686 13.6275 22.6748C11.8388 22.1798 10.6688 21.516 9.44252 20.3123C7.86752 18.7485 7.00127 16.6673 7.00127 14.4398C7.00127 12.6173 8.55377 11.1323 10.4663 11.1323C12.3788 11.1323 13.9313 12.6173 13.9313 14.4398C13.9313 15.6435 14.9775 16.6223 16.2713 16.6223C17.565 16.6223 18.6113 15.6435 18.6113 14.4398C18.6113 10.1985 14.955 6.75602 10.455 6.75602C7.26002 6.75602 4.33501 8.53352 3.01876 11.2898C2.58001 12.201 2.35501 13.2698 2.35501 14.4398C2.35501 15.3173 2.43376 16.701 3.10876 18.501C3.22126 18.7935 3.07501 19.1198 2.78251 19.221C2.49001 19.3335 2.16376 19.176 2.06251 18.8948C1.51126 17.421 1.24126 15.9585 1.24126 14.4398C1.24126 13.0898 1.50001 11.8635 2.00626 10.7948C3.50251 7.65602 6.82126 5.61977 10.455 5.61977C15.5738 5.61977 19.7363 9.56852 19.7363 14.4285C19.7363 16.251 18.1838 17.736 16.2713 17.736C14.3588 17.736 12.8063 16.251 12.8063 14.4285C12.8063 13.2248 11.76 12.246 10.4663 12.246C9.17252 12.246 8.12627 13.2248 8.12627 14.4285C8.12627 16.3523 8.86877 18.1523 10.23 19.5023C11.2988 20.5598 12.3225 21.1448 13.9088 21.5835C14.2125 21.6623 14.3813 21.9773 14.3025 22.2698C14.2463 22.5285 14.01 22.6973 13.7738 22.6973Z" fill="#5C6181"/>
</svg>
