<svg viewBox="0 0 26 17" fill="none" xmlns="http://www.w3.org/2000/svg">
<path d="M13 2.25977C17.2637 2.25977 21.0662 4.65602 22.9225 8.44727C21.0662 12.2385 17.275 14.6348 13 14.6348C8.725 14.6348 4.93375 12.2385 3.0775 8.44727C4.93375 4.65602 8.73625 2.25977 13 2.25977ZM13 0.00976562C7.375 0.00976562 2.57125 3.50852 0.625 8.44727C2.57125 13.386 7.375 16.8848 13 16.8848C18.625 16.8848 23.4287 13.386 25.375 8.44727C23.4287 3.50852 18.625 0.00976562 13 0.00976562ZM13 5.63477C14.5525 5.63477 15.8125 6.89477 15.8125 8.44727C15.8125 9.99977 14.5525 11.2598 13 11.2598C11.4475 11.2598 10.1875 9.99977 10.1875 8.44727C10.1875 6.89477 11.4475 5.63477 13 5.63477ZM13 3.38477C10.21 3.38477 7.9375 5.65727 7.9375 8.44727C7.9375 11.2373 10.21 13.5098 13 13.5098C15.79 13.5098 18.0625 11.2373 18.0625 8.44727C18.0625 5.65727 15.79 3.38477 13 3.38477Z" fill="#5C6181"/>
</svg>
